<svg width="64" height="35" viewBox="0 0 64 35" fill="none" xmlns="http://www.w3.org/2000/svg">
<path d="M0.0046919 33.8418C0.0046919 29.8252 -0.0140757 25.8086 0.0234595 21.8132C0.0234595 21.4307 0.304973 20.9631 0.56772 20.6656C5.99155 14.3963 11.4717 8.19071 16.8392 1.83638C18.0028 0.455009 19.1664 -0.076289 20.818 0.00871869C23.8208 0.157482 26.8236 0.0512225 29.939 0.0512225C29.9578 0.476261 29.9953 0.837544 29.9953 1.22008C29.9953 4.72665 30.0141 8.23321 29.9765 11.7398C29.9765 12.2711 29.7326 12.9086 29.3947 13.2912C23.3891 20.0493 17.3459 26.7861 11.3028 33.5018C11.0776 33.7568 10.721 33.9906 10.4395 33.9906C7.06131 34.0118 3.68314 33.9906 0.304973 33.9906C0.229903 33.9693 0.1736 33.9055 0.0046919 33.8418Z" fill="white"/>
<path d="M59.9953 0.0979187C59.9953 1.85962 59.9953 3.51519 59.9953 5.17076C59.9953 7.39942 60.0141 9.62807 59.9765 11.8567C59.9578 12.3237 59.7701 12.8968 59.4885 13.2151C53.4446 19.986 47.3819 26.7356 41.3193 33.4641C41.0752 33.74 40.6811 33.9522 40.362 33.9735C37.0773 34.0159 33.7925 33.9947 30.5078 33.9947C30.3952 33.9947 30.2638 33.9522 30.0198 33.9098C30.0198 33.4853 30.0198 33.082 30.0198 32.6575C30.0198 29.2615 30.0385 25.8654 30.001 22.4694C29.9822 21.6204 30.2262 21.026 30.7518 20.4317C35.8197 14.6585 40.9439 8.94886 45.8428 3.00578C47.6635 0.798353 49.4842 -0.262911 52.1495 0.0554681C54.3831 0.310172 56.6543 0.119144 58.9067 0.119144C59.2257 0.0979187 59.5636 0.0979187 59.9953 0.0979187Z" fill="white"/>
</svg>
