<svg width="74" height="74" viewBox="0 0 74 74" fill="none" xmlns="http://www.w3.org/2000/svg">
<path d="M30.5701 12.9561L23.959 14.9952" stroke="#424242" stroke-width="2.5" stroke-miterlimit="10" stroke-linecap="round" stroke-linejoin="round"/>
<path d="M9.64815 19.4385L2 21.7819L22.7408 71.9994L30.3889 69.6559" stroke="#424242" stroke-width="2.5" stroke-miterlimit="10" stroke-linecap="round" stroke-linejoin="round"/>
<path d="M33.1111 5.04395L30.5703 12.957" stroke="#424242" stroke-width="2.5" stroke-miterlimit="10" stroke-linecap="round" stroke-linejoin="round"/>
<path d="M53.8518 55.2609L62.9259 52.2174L42.1851 2L33.1111 5.04348L53.8518 55.2609ZM53.8518 55.2609L51.3111 63.1739L30.5703 12.9565" stroke="#424242" stroke-width="2.5" stroke-miterlimit="10" stroke-linecap="round" stroke-linejoin="round"/>
<path d="M62.9258 52.2166L65.7776 58.6993L71.9999 56.7819L51.2591 6.56445L44.8813 8.54271" stroke="#424242" stroke-width="2.5" stroke-miterlimit="10" stroke-linecap="round" stroke-linejoin="round"/>
<path d="M12.1887 11.4961L9.64795 19.4091" stroke="#424242" stroke-width="2.5" stroke-miterlimit="10" stroke-linecap="round" stroke-linejoin="round"/>
<path d="M32.9294 61.7121L42.0035 58.6686L21.2628 8.45117L12.1887 11.4947L32.9294 61.7121ZM32.9294 61.7121L30.3887 69.6251L9.64795 19.4077" stroke="#424242" stroke-width="2.5" stroke-miterlimit="10" stroke-linecap="round" stroke-linejoin="round"/>
<path d="M42.0034 58.6689L44.8812 65.1516L51.3108 63.1733" stroke="#424242" stroke-width="2.5" stroke-miterlimit="10" stroke-linecap="round" stroke-linejoin="round"/>
</svg>
