<svg width="70" height="70" viewBox="0 0 70 70" fill="none" xmlns="http://www.w3.org/2000/svg">
<g clip-path="url(#clip0_259_13)">
<path d="M49.6198 0C49.7656 0.0546875 49.9115 0.109375 50.0755 0.145833C52.3542 0.710938 53.9583 2.69792 53.9948 5.04948C54.013 7.18229 53.9948 9.33333 53.9948 11.4661C53.9948 11.7214 53.9948 11.9583 53.9948 12.3047C54.8516 12.3047 55.6536 12.3047 56.474 12.3047C58.1146 12.3047 59.0807 13.2526 59.0807 14.875C59.099 16.7708 59.099 18.6484 59.0807 20.5443C59.0625 22.1849 58.1328 23.0964 56.474 23.1146C55.6719 23.1146 54.888 23.1146 53.9948 23.1146C53.9948 23.4245 53.9948 23.6797 53.9948 23.9531C53.9948 31.1354 54.013 38.2995 53.9948 45.4818C53.9583 56.7656 46.4479 66.4635 35.5833 69.2161C34.1797 69.5807 32.7214 69.7448 31.2995 70C30.1146 70 28.9297 70 27.7448 70C27.599 69.9635 27.4531 69.9089 27.2891 69.8906C19.9792 69.125 14.1094 65.7708 9.7526 59.8646C6.54427 55.526 5.08594 50.6042 5.06771 45.2266C5.06771 38.1354 5.06771 31.0625 5.06771 23.9714C5.06771 23.7161 5.06771 23.4427 5.06771 23.1328C4.33854 23.1328 3.70052 23.0781 3.0625 23.151C1.6224 23.2604 0.583333 22.7135 0 21.3281C0 18.9219 0 16.4974 0 14.0729C0.601562 12.6875 1.67708 12.1589 3.15365 12.2865C3.77344 12.3411 4.41146 12.3047 5.08594 12.3047C5.08594 11.9766 5.08594 11.7214 5.08594 11.4844C5.08594 9.42448 5.06771 7.34635 5.08594 5.28646C5.1224 3.22656 5.9974 1.64063 7.80208 0.638021C8.3125 0.364583 8.89583 0.21875 9.44271 0C22.8229 0 36.2396 0 49.6198 0ZM7.14583 26.3958C7.14583 32.6302 7.1276 38.8828 7.16406 45.1172C7.16406 46.5391 7.27344 47.9974 7.52865 49.401C9.71615 62.1797 22.4401 70.4557 35.0182 67.2839C45.0443 64.75 51.9531 55.8359 51.9714 45.3906C51.9896 32.138 51.9714 18.8672 51.9714 5.61458C51.9714 3.24479 50.7865 2.0599 48.3984 2.0599C35.875 2.0599 23.3333 2.0599 10.8099 2.0599C8.33073 2.0599 7.16406 3.22656 7.16406 5.6875C7.14583 12.5781 7.14583 19.487 7.14583 26.3958ZM5.03125 21.0729C5.03125 18.776 5.03125 16.5885 5.03125 14.3646C4.15625 14.3646 3.35417 14.3281 2.53385 14.3828C2.35156 14.401 2.0599 14.6927 2.0599 14.8568C2.02344 16.7708 2.02344 18.6667 2.0599 20.5807C2.0599 20.7448 2.36979 21.0365 2.53385 21.0365C3.3724 21.0911 4.17448 21.0729 5.03125 21.0729ZM54.0312 21.0729C54.9245 21.0729 55.7448 21.1094 56.5469 21.0547C56.7109 21.0365 57.0026 20.7448 57.0208 20.5807C57.0573 18.6667 57.0573 16.7526 57.0208 14.8568C57.0208 14.6927 56.8021 14.401 56.6745 14.401C55.7995 14.3646 54.9245 14.3828 54.0312 14.3828C54.0312 16.625 54.0312 18.8125 54.0312 21.0729Z" fill="#424242"/>
<path d="M70 27.8907C68.7968 29.5313 67.1562 30.5703 65.1875 30.9896C63.8567 31.2813 62.4166 30.3698 61.7786 28.9844C61.5963 28.5834 61.3229 28.4193 60.9948 28.5834C60.7396 28.711 60.4297 29.0391 60.4114 29.2761C60.375 32.9766 60.3932 36.6953 60.3932 40.3959C62.289 40.9245 62.763 41.5443 62.763 43.5313C62.763 51.862 62.763 60.1927 62.7812 68.5417C62.7812 69.1797 62.6718 69.7084 62.052 70.0183C61.8333 70.0183 61.5963 70.0183 61.3593 70.0183C60.7942 69.6537 60.7031 69.125 60.7031 68.487C60.7213 60.1745 60.7031 51.862 60.7031 43.5495C60.7031 42.5469 60.7031 42.5469 59.6823 42.5469C57.9687 42.5469 57.9687 42.5469 57.9687 44.2969C57.9687 45.7552 57.9687 47.2136 57.9687 48.6719C57.9687 49.474 57.5859 49.9297 56.9479 49.9297C56.3099 49.9297 55.927 49.4558 55.927 48.6537C55.9088 46.9219 55.927 45.1901 55.927 43.4584C55.927 41.5808 56.4922 40.8698 58.3333 40.4141C58.3333 40.1771 58.3333 39.9401 58.3333 39.6849C58.3333 36.2943 58.3333 32.9037 58.3333 29.4948C58.3333 27.6354 59.2812 26.6511 61.1406 26.487C61.3411 26.4688 61.5963 26.3047 61.6875 26.1224C62.763 24.0808 64.6406 23.4427 66.6823 24.5183C67.9218 25.1745 69.1614 25.849 69.9817 27.0703C70 27.3438 70 27.6172 70 27.8907ZM67.7213 27.5078C66.8645 26.9974 66.1901 26.5599 65.4974 26.2136C64.8593 25.8854 64.2213 26.0677 63.802 26.6146C63.401 27.125 63.401 27.8724 63.802 28.3828C64.2213 28.9297 64.8593 29.1302 65.4974 28.8021C66.1901 28.4558 66.8645 28.0183 67.7213 27.5078Z" fill="#424242"/>
<path d="M56.6014 70.0002C56.091 69.6356 55.927 69.1616 55.9452 68.5418C55.9634 63.7476 55.9452 58.9351 55.9634 54.1408C55.9634 53.8674 55.927 53.521 56.0728 53.3569C56.328 53.0653 56.7108 52.7554 57.0572 52.7007C57.5494 52.6278 57.8957 52.9924 57.9869 53.521C58.0233 53.7033 58.0051 53.8856 58.0051 54.0679C58.0051 58.9168 58.0051 63.7658 58.0233 68.6147C58.0233 69.2345 57.8775 69.7267 57.2942 70.0366C57.0572 70.0002 56.8384 70.0002 56.6014 70.0002Z" fill="#424242"/>
<path d="M47.797 14.3643C47.4689 14.3643 47.1955 14.3643 46.9403 14.3643C38.6095 14.3643 30.2606 14.3643 21.9299 14.3643C21.7111 14.3643 21.4741 14.3825 21.2554 14.346C20.6903 14.2367 20.3621 13.9085 20.3804 13.307C20.3986 12.7419 20.7267 12.432 21.2554 12.3226C21.4559 12.2861 21.6564 12.3044 21.8752 12.3044C30.6434 12.3044 39.4116 12.3044 48.1798 12.3044C49.5288 12.3044 49.9298 12.7054 49.9298 14.0544C49.9298 19.8148 49.9298 25.5752 49.9298 31.3538C49.9298 32.6481 49.5106 33.0856 48.2163 33.0856C35.8022 33.0856 23.3882 33.0856 10.9741 33.0856C9.64339 33.0856 9.22412 32.6663 9.22412 31.3174C9.22412 25.557 9.22412 19.7965 9.22412 14.0179C9.22412 12.7236 9.66162 12.2861 10.9377 12.2861C12.7059 12.2861 14.4924 12.2861 16.2606 12.2861C17.1174 12.2861 17.6095 12.6507 17.6278 13.2887C17.646 13.945 17.1356 14.3278 16.2424 14.3278C14.8387 14.3278 13.4168 14.3278 12.0132 14.3278C11.7944 14.3278 11.5757 14.346 11.3205 14.3643C11.3205 19.9059 11.3205 25.4111 11.3205 30.971C23.4976 30.971 35.6382 30.971 47.8517 30.971C47.797 25.484 47.797 19.9606 47.797 14.3643Z" fill="#424242"/>
<path d="M29.5311 6.16142C31.4634 6.16142 33.3957 6.16142 35.3462 6.16142C36.203 6.16142 36.6769 6.52601 36.6769 7.18226C36.6769 7.83851 36.2212 8.20309 35.3462 8.20309C31.4816 8.20309 27.5988 8.20309 23.7342 8.20309C22.9321 8.20309 22.4582 7.83851 22.44 7.21871C22.4217 6.56246 22.8957 6.16142 23.7342 6.16142C25.6665 6.14319 27.5988 6.16142 29.5311 6.16142Z" fill="#424242"/>
<path d="M12.2682 6.1428C11.7031 6.12457 11.2292 5.63239 11.2656 5.06728C11.3021 4.52041 11.7578 4.08291 12.3047 4.10114C12.8698 4.10114 13.3255 4.59332 13.2891 5.17666C13.2526 5.72353 12.7969 6.16103 12.2682 6.1428Z" fill="#424242"/>
<path d="M47.8513 5.15895C47.8331 5.72405 47.3227 6.17978 46.7576 6.14332C46.2107 6.10686 45.7914 5.6329 45.8097 5.08603C45.8279 4.52093 46.3383 4.0652 46.8852 4.10165C47.4321 4.13811 47.8695 4.61207 47.8513 5.15895Z" fill="#424242"/>
</g>
<defs>
<clipPath id="clip0_259_13">
<rect width="70" height="70" fill="white"/>
</clipPath>
</defs>
</svg>
