<svg width="74" height="74" viewBox="0 0 74 74" fill="none" xmlns="http://www.w3.org/2000/svg">
<path d="M71.9998 48.6673C71.9998 42.2117 69.3823 36.3784 65.158 32.1784C60.9336 27.9525 55.1024 25.334 48.6752 25.334C35.7948 25.334 25.3506 35.7821 25.3506 48.6673C25.3506 55.1228 27.9681 60.9561 32.1925 65.1561C36.4168 69.382 42.248 72.0005 48.6752 72.0005C61.5556 72.0005 71.9998 61.5524 71.9998 48.6673Z" stroke="#424242" stroke-width="2.5" stroke-miterlimit="10" stroke-linecap="round" stroke-linejoin="round"/>
<path d="M65.158 32.1777L41.8333 8.84443C37.609 4.61852 31.7778 2 25.3246 2C12.4442 2 2 12.4481 2 25.3333C2 31.7888 4.59164 37.6221 8.81599 41.8221L32.1406 65.1554" stroke="#424242" stroke-width="2.5" stroke-miterlimit="10" stroke-linecap="round" stroke-linejoin="round"/>
<path d="M66.8164 48.6667C66.8164 58.674 58.7046 66.8148 48.675 66.8148C42.3514 66.8148 36.7535 63.574 33.514 58.6222C32.8143 57.5592 32.2182 56.4185 31.7776 55.2C31.2593 53.9037 30.8964 52.5296 30.715 51.0778C30.6114 50.2741 30.5596 49.4704 30.5596 48.6407C30.5596 47.6815 30.6373 46.7481 30.7668 45.8407C31.959 38.063 38.1012 31.9445 45.876 30.726C46.7831 30.5963 47.7161 30.5186 48.675 30.5186C49.4784 30.5186 50.3077 30.5704 51.1111 30.6741C52.5624 30.8556 53.9101 31.2186 55.2318 31.7371C56.4499 32.1778 57.5902 32.7741 58.6528 33.5C63.5769 36.7667 66.8164 42.3148 66.8164 48.6667Z" stroke="#424242" stroke-width="2.5" stroke-miterlimit="10" stroke-linecap="round" stroke-linejoin="round"/>
<path d="M58.6534 33.5254C60.5453 36.3772 61.6338 39.8254 61.6338 43.4809C61.6338 53.4883 53.522 61.629 43.4924 61.629C39.8123 61.629 36.3914 60.5142 33.5146 58.6216" stroke="#424242" stroke-width="2.5" stroke-miterlimit="10" stroke-linecap="round" stroke-linejoin="round"/>
<path d="M55.2066 31.7627C56.01 33.7849 56.4506 36.0145 56.4506 38.296C56.4506 48.3034 48.3388 56.4441 38.3092 56.4441C36.0027 56.4441 33.7998 56.0034 31.7783 55.1997" stroke="#424242" stroke-width="2.5" stroke-miterlimit="10" stroke-linecap="round" stroke-linejoin="round"/>
<path d="M51.1109 30.6738C51.2146 31.4775 51.2664 32.2812 51.2664 33.1109C51.2664 43.1182 43.1547 51.259 33.1251 51.259C32.3217 51.259 31.4924 51.2071 30.689 51.1034" stroke="#424242" stroke-width="2.5" stroke-miterlimit="10" stroke-linecap="round" stroke-linejoin="round"/>
<path d="M30.7412 45.8667C38.5161 44.6482 44.6583 38.5297 45.8504 30.752" stroke="#424242" stroke-width="2.5" stroke-miterlimit="10" stroke-linecap="round" stroke-linejoin="round"/>
</svg>
