<svg width="70" height="70" viewBox="0 0 70 70" fill="none" xmlns="http://www.w3.org/2000/svg">
<circle cx="35" cy="35" r="33.75" stroke="white" stroke-width="2.5"/>
<path d="M17.6037 30.2727V39H15.7585V30.2727H17.6037ZM26.8221 33.3281H24.9556C24.9215 33.0866 24.8519 32.8722 24.7468 32.6847C24.6417 32.4943 24.5067 32.3324 24.342 32.1989C24.1772 32.0653 23.9869 31.9631 23.771 31.892C23.5579 31.821 23.3263 31.7855 23.0763 31.7855C22.6246 31.7855 22.2312 31.8977 21.896 32.1222C21.5607 32.3437 21.3008 32.6676 21.1161 33.0938C20.9315 33.517 20.8391 34.0312 20.8391 34.6364C20.8391 35.2585 20.9315 35.7812 21.1161 36.2045C21.3036 36.6278 21.565 36.9474 21.9002 37.1634C22.2354 37.3793 22.6232 37.4872 23.0636 37.4872C23.3107 37.4872 23.5394 37.4545 23.7496 37.3892C23.9627 37.3239 24.1516 37.2287 24.3164 37.1037C24.4812 36.9759 24.6175 36.821 24.7255 36.6392C24.8363 36.4574 24.913 36.25 24.9556 36.017L26.8221 36.0256C26.7738 36.4261 26.6531 36.8125 26.4599 37.1847C26.2695 37.554 26.0124 37.8849 25.6886 38.1776C25.3675 38.4673 24.984 38.6974 24.538 38.8679C24.0948 39.0355 23.5934 39.1193 23.0337 39.1193C22.2553 39.1193 21.5593 38.9432 20.9457 38.5909C20.3349 38.2386 19.8519 37.7287 19.4968 37.0611C19.1445 36.3935 18.9684 35.5852 18.9684 34.6364C18.9684 33.6847 19.1474 32.875 19.5053 32.2074C19.8633 31.5398 20.3491 31.0312 20.9627 30.6818C21.5763 30.3295 22.2667 30.1534 23.0337 30.1534C23.5394 30.1534 24.0082 30.2244 24.44 30.3665C24.8746 30.5085 25.2596 30.7159 25.5948 30.9886C25.93 31.2585 26.2028 31.5895 26.413 31.9815C26.6261 32.3736 26.7624 32.8224 26.8221 33.3281ZM36.1651 34.6364C36.1651 35.5881 35.9847 36.3977 35.6239 37.0653C35.266 37.733 34.7773 38.2429 34.158 38.5952C33.5415 38.9446 32.8484 39.1193 32.0785 39.1193C31.3029 39.1193 30.6069 38.9432 29.9904 38.5909C29.3739 38.2386 28.8867 37.7287 28.5288 37.0611C28.1708 36.3935 27.9918 35.5852 27.9918 34.6364C27.9918 33.6847 28.1708 32.875 28.5288 32.2074C28.8867 31.5398 29.3739 31.0312 29.9904 30.6818C30.6069 30.3295 31.3029 30.1534 32.0785 30.1534C32.8484 30.1534 33.5415 30.3295 34.158 30.6818C34.7773 31.0312 35.266 31.5398 35.6239 32.2074C35.9847 32.875 36.1651 33.6847 36.1651 34.6364ZM34.2944 34.6364C34.2944 34.0199 34.2021 33.5 34.0174 33.0767C33.8356 32.6534 33.5785 32.3324 33.2461 32.1136C32.9137 31.8949 32.5245 31.7855 32.0785 31.7855C31.6325 31.7855 31.2433 31.8949 30.9109 32.1136C30.5785 32.3324 30.32 32.6534 30.1353 33.0767C29.9535 33.5 29.8626 34.0199 29.8626 34.6364C29.8626 35.2528 29.9535 35.7727 30.1353 36.196C30.32 36.6193 30.5785 36.9403 30.9109 37.1591C31.2433 37.3778 31.6325 37.4872 32.0785 37.4872C32.5245 37.4872 32.9137 37.3778 33.2461 37.1591C33.5785 36.9403 33.8356 36.6193 34.0174 36.196C34.2021 35.7727 34.2944 35.2528 34.2944 34.6364ZM44.8317 30.2727V39H43.2379L39.4411 33.5071H39.3771V39H37.532V30.2727H39.1513L42.9183 35.7614H42.995V30.2727H44.8317ZM54.3761 34.6364C54.3761 35.5881 54.1957 36.3977 53.8349 37.0653C53.4769 37.733 52.9883 38.2429 52.369 38.5952C51.7525 38.9446 51.0593 39.1193 50.2894 39.1193C49.5138 39.1193 48.8178 38.9432 48.2013 38.5909C47.5849 38.2386 47.0977 37.7287 46.7397 37.0611C46.3817 36.3935 46.2028 35.5852 46.2028 34.6364C46.2028 33.6847 46.3817 32.875 46.7397 32.2074C47.0977 31.5398 47.5849 31.0312 48.2013 30.6818C48.8178 30.3295 49.5138 30.1534 50.2894 30.1534C51.0593 30.1534 51.7525 30.3295 52.369 30.6818C52.9883 31.0312 53.4769 31.5398 53.8349 32.2074C54.1957 32.875 54.3761 33.6847 54.3761 34.6364ZM52.5053 34.6364C52.5053 34.0199 52.413 33.5 52.2283 33.0767C52.0465 32.6534 51.7894 32.3324 51.457 32.1136C51.1246 31.8949 50.7354 31.7855 50.2894 31.7855C49.8434 31.7855 49.4542 31.8949 49.1218 32.1136C48.7894 32.3324 48.5309 32.6534 48.3462 33.0767C48.1644 33.5 48.0735 34.0199 48.0735 34.6364C48.0735 35.2528 48.1644 35.7727 48.3462 36.196C48.5309 36.6193 48.7894 36.9403 49.1218 37.1591C49.4542 37.3778 49.8434 37.4872 50.2894 37.4872C50.7354 37.4872 51.1246 37.3778 51.457 37.1591C51.7894 36.9403 52.0465 36.6193 52.2283 36.196C52.413 35.7727 52.5053 35.2528 52.5053 34.6364Z" fill="white"/>
</svg>
