<svg width="68" height="53" viewBox="0 0 68 53" fill="none" xmlns="http://www.w3.org/2000/svg">
<path d="M15.301 52.8791C15.3159 52.8891 15.3358 52.8841 15.3507 52.894C15.468 52.9593 15.5991 52.9956 15.7333 53C15.8072 52.9999 15.8807 52.9899 15.9519 52.9702L33.952 48.0578L51.9522 52.9702C52.0234 52.9899 52.0969 52.9999 52.1708 53C52.3047 52.996 52.4355 52.959 52.5517 52.8924C52.5683 52.8841 52.5865 52.8874 52.6014 52.8775L67.5076 43.7681C67.6616 43.6735 67.7805 43.5313 67.8463 43.363C67.9121 43.1947 67.9211 43.0095 67.872 42.8356L59.6173 13.8512C59.5835 13.7305 59.5227 13.6191 59.4395 13.5253C59.3563 13.4316 59.2529 13.358 59.137 13.3101C59.0212 13.2622 58.8959 13.2414 58.7708 13.249C58.6457 13.2567 58.524 13.2927 58.4148 13.3544L50.1965 17.9654C50.0166 18.079 49.8871 18.2574 49.835 18.4638C49.7829 18.6702 49.812 18.8887 49.9165 19.0741C50.0209 19.2596 50.1926 19.3979 50.3961 19.4603C50.5996 19.5227 50.8193 19.5046 51.0097 19.4096L58.3122 15.3104L66.1081 42.6816L52.8333 50.7956L49.6798 25.5692C49.6525 25.3511 49.5398 25.1528 49.3663 25.0178C49.1928 24.8829 48.9729 24.8223 48.7548 24.8496C48.5367 24.8768 48.3383 24.9896 48.2034 25.163C48.0684 25.3365 48.0079 25.5565 48.0351 25.7746L51.1936 51.0473L34.7802 46.5672V42.0456C34.7802 41.826 34.6929 41.6153 34.5376 41.46C34.3823 41.3047 34.1717 41.2175 33.952 41.2175C33.7324 41.2175 33.5218 41.3047 33.3665 41.46C33.2112 41.6153 33.1239 41.826 33.1239 42.0456V46.5672L16.7088 51.0473L19.8673 25.7746C19.8808 25.6666 19.8729 25.557 19.844 25.4521C19.8151 25.3472 19.7659 25.2489 19.699 25.163C19.6322 25.0771 19.5491 25.0053 19.4545 24.9515C19.3599 24.8977 19.2556 24.8631 19.1476 24.8496C19.0397 24.8361 18.9301 24.844 18.8251 24.8729C18.7202 24.9017 18.622 24.951 18.5361 25.0178C18.4502 25.0846 18.3783 25.1677 18.3245 25.2623C18.2707 25.3569 18.2361 25.4612 18.2226 25.5692L15.0708 50.7956L1.79594 42.6832L9.59191 15.3137L16.8943 19.4129C17.0848 19.5079 17.3045 19.5261 17.508 19.4636C17.7115 19.4012 17.8832 19.2629 17.9876 19.0775C18.092 18.892 18.1212 18.6735 18.0691 18.4671C18.0169 18.2608 17.8875 18.0823 17.7075 17.9687L9.48757 13.356C9.37869 13.2937 9.25698 13.2571 9.13178 13.2491C9.00657 13.2411 8.8812 13.2619 8.76527 13.3099C8.64934 13.3578 8.54594 13.4317 8.463 13.5258C8.38006 13.62 8.31978 13.7319 8.28678 13.8529L0.0320348 42.8373C-0.0178919 43.0112 -0.00927052 43.1966 0.0565711 43.3651C0.122413 43.5336 0.241823 43.6758 0.39641 43.7697L15.301 52.8791Z" fill="#F8F8F8"/>
<path d="M33.3907 38.7033C33.5427 38.8436 33.7418 38.9219 33.9487 38.9229C34.1556 38.9238 34.3554 38.8472 34.5086 38.7082C35.0602 38.2064 48.0303 26.3046 48.0303 14.0781C48.0303 6.18278 41.8475 0 33.9521 0C26.0568 0 19.874 6.18278 19.874 14.0781C19.874 26.0926 32.8391 38.1931 33.3907 38.7033V38.7033ZM33.9521 1.65625C41.0326 1.65625 46.374 6.996 46.374 14.0781C46.374 24.1763 36.4481 34.5113 33.9571 36.946C31.4711 34.4831 21.5303 24.0123 21.5303 14.0781C21.5303 6.996 26.8717 1.65625 33.9521 1.65625Z" fill="#F8F8F8"/>
<path d="M41.4053 14.0781C41.4053 9.96897 38.0613 6.625 33.9521 6.625C29.843 6.625 26.499 9.96897 26.499 14.0781C26.499 18.1873 29.843 21.5312 33.9521 21.5312C38.0613 21.5312 41.4053 18.1873 41.4053 14.0781ZM33.9521 19.875C30.7556 19.875 28.1553 17.2747 28.1553 14.0781C28.1553 10.8816 30.7556 8.28125 33.9521 8.28125C37.1487 8.28125 39.749 10.8816 39.749 14.0781C39.749 17.2747 37.1487 19.875 33.9521 19.875Z" fill="#F8F8F8"/>
</svg>
